<?xml version="1.0" standalone="no"?>
<svg xmlns="http://www.w3.org/2000/svg" version="1.1" width="258" height="258">
	<!-- Created with https://api.qrserver.com (QR Code API, see goQR.me/api for information) -->
	<title>QR Code</title>
	<desc>52ccd953de1ccbef6d1dd578bc7b5d183b9336c5835a46933062b07a23ba976fa78fecc417042e46f657ea3fca8d3f2661d5fea31eeb9224a28572d977e3fc47</desc>
	<rect style="fill:rgb(255, 255, 255);fill-opacity:1" x="0" y="0" width="258" height="258" />
	<g id="elements">
		<path style="fill:rgb(0, 0, 0)" d="M 6,6 l 6,0 0,6 -6,0 z M 12,6 l 6,0 0,6 -6,0 z M 18,6 l 6,0 0,6 -6,0 z M 24,6 l 6,0 0,6 -6,0 z M 30,6 l 6,0 0,6 -6,0 z M 36,6 l 6,0 0,6 -6,0 z M 42,6 l 6,0 0,6 -6,0 z M 66,6 l 6,0 0,6 -6,0 z M 78,6 l 6,0 0,6 -6,0 z M 90,6 l 6,0 0,6 -6,0 z M 96,6 l 6,0 0,6 -6,0 z M 126,6 l 6,0 0,6 -6,0 z M 132,6 l 6,0 0,6 -6,0 z M 150,6 l 6,0 0,6 -6,0 z M 162,6 l 6,0 0,6 -6,0 z M 180,6 l 6,0 0,6 -6,0 z M 192,6 l 6,0 0,6 -6,0 z M 210,6 l 6,0 0,6 -6,0 z M 216,6 l 6,0 0,6 -6,0 z M 222,6 l 6,0 0,6 -6,0 z M 228,6 l 6,0 0,6 -6,0 z M 234,6 l 6,0 0,6 -6,0 z M 240,6 l 6,0 0,6 -6,0 z M 246,6 l 6,0 0,6 -6,0 z M 6,12 l 6,0 0,6 -6,0 z M 42,12 l 6,0 0,6 -6,0 z M 54,12 l 6,0 0,6 -6,0 z M 60,12 l 6,0 0,6 -6,0 z M 72,12 l 6,0 0,6 -6,0 z M 78,12 l 6,0 0,6 -6,0 z M 90,12 l 6,0 0,6 -6,0 z M 102,12 l 6,0 0,6 -6,0 z M 108,12 l 6,0 0,6 -6,0 z M 114,12 l 6,0 0,6 -6,0 z M 120,12 l 6,0 0,6 -6,0 z M 126,12 l 6,0 0,6 -6,0 z M 138,12 l 6,0 0,6 -6,0 z M 150,12 l 6,0 0,6 -6,0 z M 156,12 l 6,0 0,6 -6,0 z M 168,12 l 6,0 0,6 -6,0 z M 210,12 l 6,0 0,6 -6,0 z M 246,12 l 6,0 0,6 -6,0 z M 6,18 l 6,0 0,6 -6,0 z M 18,18 l 6,0 0,6 -6,0 z M 24,18 l 6,0 0,6 -6,0 z M 30,18 l 6,0 0,6 -6,0 z M 42,18 l 6,0 0,6 -6,0 z M 60,18 l 6,0 0,6 -6,0 z M 78,18 l 6,0 0,6 -6,0 z M 84,18 l 6,0 0,6 -6,0 z M 96,18 l 6,0 0,6 -6,0 z M 114,18 l 6,0 0,6 -6,0 z M 132,18 l 6,0 0,6 -6,0 z M 186,18 l 6,0 0,6 -6,0 z M 198,18 l 6,0 0,6 -6,0 z M 210,18 l 6,0 0,6 -6,0 z M 222,18 l 6,0 0,6 -6,0 z M 228,18 l 6,0 0,6 -6,0 z M 234,18 l 6,0 0,6 -6,0 z M 246,18 l 6,0 0,6 -6,0 z M 6,24 l 6,0 0,6 -6,0 z M 18,24 l 6,0 0,6 -6,0 z M 24,24 l 6,0 0,6 -6,0 z M 30,24 l 6,0 0,6 -6,0 z M 42,24 l 6,0 0,6 -6,0 z M 54,24 l 6,0 0,6 -6,0 z M 78,24 l 6,0 0,6 -6,0 z M 90,24 l 6,0 0,6 -6,0 z M 96,24 l 6,0 0,6 -6,0 z M 102,24 l 6,0 0,6 -6,0 z M 114,24 l 6,0 0,6 -6,0 z M 150,24 l 6,0 0,6 -6,0 z M 156,24 l 6,0 0,6 -6,0 z M 168,24 l 6,0 0,6 -6,0 z M 180,24 l 6,0 0,6 -6,0 z M 186,24 l 6,0 0,6 -6,0 z M 210,24 l 6,0 0,6 -6,0 z M 222,24 l 6,0 0,6 -6,0 z M 228,24 l 6,0 0,6 -6,0 z M 234,24 l 6,0 0,6 -6,0 z M 246,24 l 6,0 0,6 -6,0 z M 6,30 l 6,0 0,6 -6,0 z M 18,30 l 6,0 0,6 -6,0 z M 24,30 l 6,0 0,6 -6,0 z M 30,30 l 6,0 0,6 -6,0 z M 42,30 l 6,0 0,6 -6,0 z M 72,30 l 6,0 0,6 -6,0 z M 84,30 l 6,0 0,6 -6,0 z M 96,30 l 6,0 0,6 -6,0 z M 114,30 l 6,0 0,6 -6,0 z M 120,30 l 6,0 0,6 -6,0 z M 132,30 l 6,0 0,6 -6,0 z M 144,30 l 6,0 0,6 -6,0 z M 168,30 l 6,0 0,6 -6,0 z M 186,30 l 6,0 0,6 -6,0 z M 192,30 l 6,0 0,6 -6,0 z M 210,30 l 6,0 0,6 -6,0 z M 222,30 l 6,0 0,6 -6,0 z M 228,30 l 6,0 0,6 -6,0 z M 234,30 l 6,0 0,6 -6,0 z M 246,30 l 6,0 0,6 -6,0 z M 6,36 l 6,0 0,6 -6,0 z M 42,36 l 6,0 0,6 -6,0 z M 54,36 l 6,0 0,6 -6,0 z M 78,36 l 6,0 0,6 -6,0 z M 84,36 l 6,0 0,6 -6,0 z M 102,36 l 6,0 0,6 -6,0 z M 132,36 l 6,0 0,6 -6,0 z M 150,36 l 6,0 0,6 -6,0 z M 162,36 l 6,0 0,6 -6,0 z M 168,36 l 6,0 0,6 -6,0 z M 186,36 l 6,0 0,6 -6,0 z M 192,36 l 6,0 0,6 -6,0 z M 210,36 l 6,0 0,6 -6,0 z M 246,36 l 6,0 0,6 -6,0 z M 6,42 l 6,0 0,6 -6,0 z M 12,42 l 6,0 0,6 -6,0 z M 18,42 l 6,0 0,6 -6,0 z M 24,42 l 6,0 0,6 -6,0 z M 30,42 l 6,0 0,6 -6,0 z M 36,42 l 6,0 0,6 -6,0 z M 42,42 l 6,0 0,6 -6,0 z M 54,42 l 6,0 0,6 -6,0 z M 66,42 l 6,0 0,6 -6,0 z M 78,42 l 6,0 0,6 -6,0 z M 90,42 l 6,0 0,6 -6,0 z M 102,42 l 6,0 0,6 -6,0 z M 114,42 l 6,0 0,6 -6,0 z M 126,42 l 6,0 0,6 -6,0 z M 138,42 l 6,0 0,6 -6,0 z M 150,42 l 6,0 0,6 -6,0 z M 162,42 l 6,0 0,6 -6,0 z M 174,42 l 6,0 0,6 -6,0 z M 186,42 l 6,0 0,6 -6,0 z M 198,42 l 6,0 0,6 -6,0 z M 210,42 l 6,0 0,6 -6,0 z M 216,42 l 6,0 0,6 -6,0 z M 222,42 l 6,0 0,6 -6,0 z M 228,42 l 6,0 0,6 -6,0 z M 234,42 l 6,0 0,6 -6,0 z M 240,42 l 6,0 0,6 -6,0 z M 246,42 l 6,0 0,6 -6,0 z M 66,48 l 6,0 0,6 -6,0 z M 72,48 l 6,0 0,6 -6,0 z M 78,48 l 6,0 0,6 -6,0 z M 90,48 l 6,0 0,6 -6,0 z M 96,48 l 6,0 0,6 -6,0 z M 102,48 l 6,0 0,6 -6,0 z M 126,48 l 6,0 0,6 -6,0 z M 132,48 l 6,0 0,6 -6,0 z M 138,48 l 6,0 0,6 -6,0 z M 144,48 l 6,0 0,6 -6,0 z M 162,48 l 6,0 0,6 -6,0 z M 198,48 l 6,0 0,6 -6,0 z M 6,54 l 6,0 0,6 -6,0 z M 12,54 l 6,0 0,6 -6,0 z M 18,54 l 6,0 0,6 -6,0 z M 24,54 l 6,0 0,6 -6,0 z M 30,54 l 6,0 0,6 -6,0 z M 42,54 l 6,0 0,6 -6,0 z M 48,54 l 6,0 0,6 -6,0 z M 54,54 l 6,0 0,6 -6,0 z M 60,54 l 6,0 0,6 -6,0 z M 66,54 l 6,0 0,6 -6,0 z M 72,54 l 6,0 0,6 -6,0 z M 78,54 l 6,0 0,6 -6,0 z M 102,54 l 6,0 0,6 -6,0 z M 120,54 l 6,0 0,6 -6,0 z M 138,54 l 6,0 0,6 -6,0 z M 150,54 l 6,0 0,6 -6,0 z M 156,54 l 6,0 0,6 -6,0 z M 162,54 l 6,0 0,6 -6,0 z M 168,54 l 6,0 0,6 -6,0 z M 180,54 l 6,0 0,6 -6,0 z M 192,54 l 6,0 0,6 -6,0 z M 204,54 l 6,0 0,6 -6,0 z M 216,54 l 6,0 0,6 -6,0 z M 228,54 l 6,0 0,6 -6,0 z M 240,54 l 6,0 0,6 -6,0 z M 12,60 l 6,0 0,6 -6,0 z M 30,60 l 6,0 0,6 -6,0 z M 48,60 l 6,0 0,6 -6,0 z M 66,60 l 6,0 0,6 -6,0 z M 72,60 l 6,0 0,6 -6,0 z M 78,60 l 6,0 0,6 -6,0 z M 84,60 l 6,0 0,6 -6,0 z M 90,60 l 6,0 0,6 -6,0 z M 96,60 l 6,0 0,6 -6,0 z M 120,60 l 6,0 0,6 -6,0 z M 144,60 l 6,0 0,6 -6,0 z M 174,60 l 6,0 0,6 -6,0 z M 186,60 l 6,0 0,6 -6,0 z M 192,60 l 6,0 0,6 -6,0 z M 198,60 l 6,0 0,6 -6,0 z M 210,60 l 6,0 0,6 -6,0 z M 222,60 l 6,0 0,6 -6,0 z M 24,66 l 6,0 0,6 -6,0 z M 30,66 l 6,0 0,6 -6,0 z M 42,66 l 6,0 0,6 -6,0 z M 60,66 l 6,0 0,6 -6,0 z M 66,66 l 6,0 0,6 -6,0 z M 72,66 l 6,0 0,6 -6,0 z M 78,66 l 6,0 0,6 -6,0 z M 90,66 l 6,0 0,6 -6,0 z M 102,66 l 6,0 0,6 -6,0 z M 108,66 l 6,0 0,6 -6,0 z M 114,66 l 6,0 0,6 -6,0 z M 132,66 l 6,0 0,6 -6,0 z M 138,66 l 6,0 0,6 -6,0 z M 168,66 l 6,0 0,6 -6,0 z M 174,66 l 6,0 0,6 -6,0 z M 180,66 l 6,0 0,6 -6,0 z M 210,66 l 6,0 0,6 -6,0 z M 216,66 l 6,0 0,6 -6,0 z M 222,66 l 6,0 0,6 -6,0 z M 228,66 l 6,0 0,6 -6,0 z M 234,66 l 6,0 0,6 -6,0 z M 240,66 l 6,0 0,6 -6,0 z M 6,72 l 6,0 0,6 -6,0 z M 12,72 l 6,0 0,6 -6,0 z M 48,72 l 6,0 0,6 -6,0 z M 54,72 l 6,0 0,6 -6,0 z M 60,72 l 6,0 0,6 -6,0 z M 66,72 l 6,0 0,6 -6,0 z M 78,72 l 6,0 0,6 -6,0 z M 84,72 l 6,0 0,6 -6,0 z M 90,72 l 6,0 0,6 -6,0 z M 96,72 l 6,0 0,6 -6,0 z M 108,72 l 6,0 0,6 -6,0 z M 114,72 l 6,0 0,6 -6,0 z M 162,72 l 6,0 0,6 -6,0 z M 174,72 l 6,0 0,6 -6,0 z M 186,72 l 6,0 0,6 -6,0 z M 192,72 l 6,0 0,6 -6,0 z M 198,72 l 6,0 0,6 -6,0 z M 204,72 l 6,0 0,6 -6,0 z M 216,72 l 6,0 0,6 -6,0 z M 222,72 l 6,0 0,6 -6,0 z M 228,72 l 6,0 0,6 -6,0 z M 246,72 l 6,0 0,6 -6,0 z M 6,78 l 6,0 0,6 -6,0 z M 12,78 l 6,0 0,6 -6,0 z M 18,78 l 6,0 0,6 -6,0 z M 30,78 l 6,0 0,6 -6,0 z M 42,78 l 6,0 0,6 -6,0 z M 54,78 l 6,0 0,6 -6,0 z M 60,78 l 6,0 0,6 -6,0 z M 66,78 l 6,0 0,6 -6,0 z M 72,78 l 6,0 0,6 -6,0 z M 78,78 l 6,0 0,6 -6,0 z M 102,78 l 6,0 0,6 -6,0 z M 108,78 l 6,0 0,6 -6,0 z M 114,78 l 6,0 0,6 -6,0 z M 150,78 l 6,0 0,6 -6,0 z M 162,78 l 6,0 0,6 -6,0 z M 168,78 l 6,0 0,6 -6,0 z M 180,78 l 6,0 0,6 -6,0 z M 204,78 l 6,0 0,6 -6,0 z M 210,78 l 6,0 0,6 -6,0 z M 234,78 l 6,0 0,6 -6,0 z M 240,78 l 6,0 0,6 -6,0 z M 246,78 l 6,0 0,6 -6,0 z M 12,84 l 6,0 0,6 -6,0 z M 54,84 l 6,0 0,6 -6,0 z M 90,84 l 6,0 0,6 -6,0 z M 96,84 l 6,0 0,6 -6,0 z M 102,84 l 6,0 0,6 -6,0 z M 114,84 l 6,0 0,6 -6,0 z M 120,84 l 6,0 0,6 -6,0 z M 132,84 l 6,0 0,6 -6,0 z M 144,84 l 6,0 0,6 -6,0 z M 150,84 l 6,0 0,6 -6,0 z M 168,84 l 6,0 0,6 -6,0 z M 174,84 l 6,0 0,6 -6,0 z M 186,84 l 6,0 0,6 -6,0 z M 192,84 l 6,0 0,6 -6,0 z M 198,84 l 6,0 0,6 -6,0 z M 204,84 l 6,0 0,6 -6,0 z M 210,84 l 6,0 0,6 -6,0 z M 222,84 l 6,0 0,6 -6,0 z M 234,84 l 6,0 0,6 -6,0 z M 240,84 l 6,0 0,6 -6,0 z M 246,84 l 6,0 0,6 -6,0 z M 12,90 l 6,0 0,6 -6,0 z M 18,90 l 6,0 0,6 -6,0 z M 30,90 l 6,0 0,6 -6,0 z M 36,90 l 6,0 0,6 -6,0 z M 42,90 l 6,0 0,6 -6,0 z M 54,90 l 6,0 0,6 -6,0 z M 66,90 l 6,0 0,6 -6,0 z M 72,90 l 6,0 0,6 -6,0 z M 78,90 l 6,0 0,6 -6,0 z M 84,90 l 6,0 0,6 -6,0 z M 108,90 l 6,0 0,6 -6,0 z M 114,90 l 6,0 0,6 -6,0 z M 150,90 l 6,0 0,6 -6,0 z M 162,90 l 6,0 0,6 -6,0 z M 192,90 l 6,0 0,6 -6,0 z M 204,90 l 6,0 0,6 -6,0 z M 228,90 l 6,0 0,6 -6,0 z M 234,90 l 6,0 0,6 -6,0 z M 12,96 l 6,0 0,6 -6,0 z M 18,96 l 6,0 0,6 -6,0 z M 24,96 l 6,0 0,6 -6,0 z M 36,96 l 6,0 0,6 -6,0 z M 48,96 l 6,0 0,6 -6,0 z M 54,96 l 6,0 0,6 -6,0 z M 60,96 l 6,0 0,6 -6,0 z M 66,96 l 6,0 0,6 -6,0 z M 72,96 l 6,0 0,6 -6,0 z M 90,96 l 6,0 0,6 -6,0 z M 96,96 l 6,0 0,6 -6,0 z M 102,96 l 6,0 0,6 -6,0 z M 108,96 l 6,0 0,6 -6,0 z M 114,96 l 6,0 0,6 -6,0 z M 132,96 l 6,0 0,6 -6,0 z M 138,96 l 6,0 0,6 -6,0 z M 168,96 l 6,0 0,6 -6,0 z M 174,96 l 6,0 0,6 -6,0 z M 186,96 l 6,0 0,6 -6,0 z M 192,96 l 6,0 0,6 -6,0 z M 198,96 l 6,0 0,6 -6,0 z M 222,96 l 6,0 0,6 -6,0 z M 240,96 l 6,0 0,6 -6,0 z M 246,96 l 6,0 0,6 -6,0 z M 18,102 l 6,0 0,6 -6,0 z M 24,102 l 6,0 0,6 -6,0 z M 36,102 l 6,0 0,6 -6,0 z M 42,102 l 6,0 0,6 -6,0 z M 48,102 l 6,0 0,6 -6,0 z M 54,102 l 6,0 0,6 -6,0 z M 60,102 l 6,0 0,6 -6,0 z M 66,102 l 6,0 0,6 -6,0 z M 72,102 l 6,0 0,6 -6,0 z M 114,102 l 6,0 0,6 -6,0 z M 126,102 l 6,0 0,6 -6,0 z M 132,102 l 6,0 0,6 -6,0 z M 144,102 l 6,0 0,6 -6,0 z M 150,102 l 6,0 0,6 -6,0 z M 156,102 l 6,0 0,6 -6,0 z M 174,102 l 6,0 0,6 -6,0 z M 180,102 l 6,0 0,6 -6,0 z M 198,102 l 6,0 0,6 -6,0 z M 228,102 l 6,0 0,6 -6,0 z M 240,102 l 6,0 0,6 -6,0 z M 18,108 l 6,0 0,6 -6,0 z M 24,108 l 6,0 0,6 -6,0 z M 36,108 l 6,0 0,6 -6,0 z M 54,108 l 6,0 0,6 -6,0 z M 60,108 l 6,0 0,6 -6,0 z M 66,108 l 6,0 0,6 -6,0 z M 72,108 l 6,0 0,6 -6,0 z M 78,108 l 6,0 0,6 -6,0 z M 84,108 l 6,0 0,6 -6,0 z M 96,108 l 6,0 0,6 -6,0 z M 138,108 l 6,0 0,6 -6,0 z M 144,108 l 6,0 0,6 -6,0 z M 150,108 l 6,0 0,6 -6,0 z M 162,108 l 6,0 0,6 -6,0 z M 180,108 l 6,0 0,6 -6,0 z M 186,108 l 6,0 0,6 -6,0 z M 192,108 l 6,0 0,6 -6,0 z M 204,108 l 6,0 0,6 -6,0 z M 210,108 l 6,0 0,6 -6,0 z M 216,108 l 6,0 0,6 -6,0 z M 222,108 l 6,0 0,6 -6,0 z M 240,108 l 6,0 0,6 -6,0 z M 246,108 l 6,0 0,6 -6,0 z M 6,114 l 6,0 0,6 -6,0 z M 12,114 l 6,0 0,6 -6,0 z M 24,114 l 6,0 0,6 -6,0 z M 30,114 l 6,0 0,6 -6,0 z M 42,114 l 6,0 0,6 -6,0 z M 54,114 l 6,0 0,6 -6,0 z M 66,114 l 6,0 0,6 -6,0 z M 72,114 l 6,0 0,6 -6,0 z M 96,114 l 6,0 0,6 -6,0 z M 102,114 l 6,0 0,6 -6,0 z M 108,114 l 6,0 0,6 -6,0 z M 114,114 l 6,0 0,6 -6,0 z M 126,114 l 6,0 0,6 -6,0 z M 132,114 l 6,0 0,6 -6,0 z M 138,114 l 6,0 0,6 -6,0 z M 144,114 l 6,0 0,6 -6,0 z M 156,114 l 6,0 0,6 -6,0 z M 168,114 l 6,0 0,6 -6,0 z M 174,114 l 6,0 0,6 -6,0 z M 222,114 l 6,0 0,6 -6,0 z M 228,114 l 6,0 0,6 -6,0 z M 234,114 l 6,0 0,6 -6,0 z M 240,114 l 6,0 0,6 -6,0 z M 6,120 l 6,0 0,6 -6,0 z M 24,120 l 6,0 0,6 -6,0 z M 48,120 l 6,0 0,6 -6,0 z M 54,120 l 6,0 0,6 -6,0 z M 78,120 l 6,0 0,6 -6,0 z M 84,120 l 6,0 0,6 -6,0 z M 90,120 l 6,0 0,6 -6,0 z M 108,120 l 6,0 0,6 -6,0 z M 144,120 l 6,0 0,6 -6,0 z M 150,120 l 6,0 0,6 -6,0 z M 156,120 l 6,0 0,6 -6,0 z M 180,120 l 6,0 0,6 -6,0 z M 186,120 l 6,0 0,6 -6,0 z M 192,120 l 6,0 0,6 -6,0 z M 198,120 l 6,0 0,6 -6,0 z M 204,120 l 6,0 0,6 -6,0 z M 210,120 l 6,0 0,6 -6,0 z M 216,120 l 6,0 0,6 -6,0 z M 222,120 l 6,0 0,6 -6,0 z M 228,120 l 6,0 0,6 -6,0 z M 246,120 l 6,0 0,6 -6,0 z M 12,126 l 6,0 0,6 -6,0 z M 18,126 l 6,0 0,6 -6,0 z M 30,126 l 6,0 0,6 -6,0 z M 36,126 l 6,0 0,6 -6,0 z M 42,126 l 6,0 0,6 -6,0 z M 60,126 l 6,0 0,6 -6,0 z M 66,126 l 6,0 0,6 -6,0 z M 72,126 l 6,0 0,6 -6,0 z M 102,126 l 6,0 0,6 -6,0 z M 108,126 l 6,0 0,6 -6,0 z M 114,126 l 6,0 0,6 -6,0 z M 150,126 l 6,0 0,6 -6,0 z M 168,126 l 6,0 0,6 -6,0 z M 204,126 l 6,0 0,6 -6,0 z M 210,126 l 6,0 0,6 -6,0 z M 222,126 l 6,0 0,6 -6,0 z M 234,126 l 6,0 0,6 -6,0 z M 240,126 l 6,0 0,6 -6,0 z M 6,132 l 6,0 0,6 -6,0 z M 18,132 l 6,0 0,6 -6,0 z M 54,132 l 6,0 0,6 -6,0 z M 66,132 l 6,0 0,6 -6,0 z M 78,132 l 6,0 0,6 -6,0 z M 84,132 l 6,0 0,6 -6,0 z M 96,132 l 6,0 0,6 -6,0 z M 102,132 l 6,0 0,6 -6,0 z M 108,132 l 6,0 0,6 -6,0 z M 132,132 l 6,0 0,6 -6,0 z M 144,132 l 6,0 0,6 -6,0 z M 150,132 l 6,0 0,6 -6,0 z M 174,132 l 6,0 0,6 -6,0 z M 186,132 l 6,0 0,6 -6,0 z M 192,132 l 6,0 0,6 -6,0 z M 204,132 l 6,0 0,6 -6,0 z M 234,132 l 6,0 0,6 -6,0 z M 246,132 l 6,0 0,6 -6,0 z M 12,138 l 6,0 0,6 -6,0 z M 24,138 l 6,0 0,6 -6,0 z M 36,138 l 6,0 0,6 -6,0 z M 42,138 l 6,0 0,6 -6,0 z M 48,138 l 6,0 0,6 -6,0 z M 108,138 l 6,0 0,6 -6,0 z M 120,138 l 6,0 0,6 -6,0 z M 132,138 l 6,0 0,6 -6,0 z M 144,138 l 6,0 0,6 -6,0 z M 150,138 l 6,0 0,6 -6,0 z M 168,138 l 6,0 0,6 -6,0 z M 192,138 l 6,0 0,6 -6,0 z M 204,138 l 6,0 0,6 -6,0 z M 222,138 l 6,0 0,6 -6,0 z M 240,138 l 6,0 0,6 -6,0 z M 12,144 l 6,0 0,6 -6,0 z M 24,144 l 6,0 0,6 -6,0 z M 30,144 l 6,0 0,6 -6,0 z M 54,144 l 6,0 0,6 -6,0 z M 66,144 l 6,0 0,6 -6,0 z M 78,144 l 6,0 0,6 -6,0 z M 84,144 l 6,0 0,6 -6,0 z M 90,144 l 6,0 0,6 -6,0 z M 96,144 l 6,0 0,6 -6,0 z M 102,144 l 6,0 0,6 -6,0 z M 132,144 l 6,0 0,6 -6,0 z M 162,144 l 6,0 0,6 -6,0 z M 174,144 l 6,0 0,6 -6,0 z M 186,144 l 6,0 0,6 -6,0 z M 192,144 l 6,0 0,6 -6,0 z M 198,144 l 6,0 0,6 -6,0 z M 210,144 l 6,0 0,6 -6,0 z M 216,144 l 6,0 0,6 -6,0 z M 222,144 l 6,0 0,6 -6,0 z M 234,144 l 6,0 0,6 -6,0 z M 6,150 l 6,0 0,6 -6,0 z M 24,150 l 6,0 0,6 -6,0 z M 30,150 l 6,0 0,6 -6,0 z M 36,150 l 6,0 0,6 -6,0 z M 42,150 l 6,0 0,6 -6,0 z M 54,150 l 6,0 0,6 -6,0 z M 60,150 l 6,0 0,6 -6,0 z M 78,150 l 6,0 0,6 -6,0 z M 90,150 l 6,0 0,6 -6,0 z M 96,150 l 6,0 0,6 -6,0 z M 102,150 l 6,0 0,6 -6,0 z M 108,150 l 6,0 0,6 -6,0 z M 114,150 l 6,0 0,6 -6,0 z M 120,150 l 6,0 0,6 -6,0 z M 132,150 l 6,0 0,6 -6,0 z M 144,150 l 6,0 0,6 -6,0 z M 156,150 l 6,0 0,6 -6,0 z M 168,150 l 6,0 0,6 -6,0 z M 180,150 l 6,0 0,6 -6,0 z M 186,150 l 6,0 0,6 -6,0 z M 6,156 l 6,0 0,6 -6,0 z M 12,156 l 6,0 0,6 -6,0 z M 30,156 l 6,0 0,6 -6,0 z M 78,156 l 6,0 0,6 -6,0 z M 84,156 l 6,0 0,6 -6,0 z M 114,156 l 6,0 0,6 -6,0 z M 120,156 l 6,0 0,6 -6,0 z M 126,156 l 6,0 0,6 -6,0 z M 138,156 l 6,0 0,6 -6,0 z M 150,156 l 6,0 0,6 -6,0 z M 162,156 l 6,0 0,6 -6,0 z M 174,156 l 6,0 0,6 -6,0 z M 180,156 l 6,0 0,6 -6,0 z M 192,156 l 6,0 0,6 -6,0 z M 198,156 l 6,0 0,6 -6,0 z M 204,156 l 6,0 0,6 -6,0 z M 210,156 l 6,0 0,6 -6,0 z M 216,156 l 6,0 0,6 -6,0 z M 222,156 l 6,0 0,6 -6,0 z M 228,156 l 6,0 0,6 -6,0 z M 246,156 l 6,0 0,6 -6,0 z M 18,162 l 6,0 0,6 -6,0 z M 36,162 l 6,0 0,6 -6,0 z M 42,162 l 6,0 0,6 -6,0 z M 48,162 l 6,0 0,6 -6,0 z M 60,162 l 6,0 0,6 -6,0 z M 90,162 l 6,0 0,6 -6,0 z M 102,162 l 6,0 0,6 -6,0 z M 108,162 l 6,0 0,6 -6,0 z M 114,162 l 6,0 0,6 -6,0 z M 126,162 l 6,0 0,6 -6,0 z M 132,162 l 6,0 0,6 -6,0 z M 138,162 l 6,0 0,6 -6,0 z M 150,162 l 6,0 0,6 -6,0 z M 168,162 l 6,0 0,6 -6,0 z M 198,162 l 6,0 0,6 -6,0 z M 216,162 l 6,0 0,6 -6,0 z M 240,162 l 6,0 0,6 -6,0 z M 6,168 l 6,0 0,6 -6,0 z M 12,168 l 6,0 0,6 -6,0 z M 36,168 l 6,0 0,6 -6,0 z M 48,168 l 6,0 0,6 -6,0 z M 54,168 l 6,0 0,6 -6,0 z M 66,168 l 6,0 0,6 -6,0 z M 72,168 l 6,0 0,6 -6,0 z M 78,168 l 6,0 0,6 -6,0 z M 84,168 l 6,0 0,6 -6,0 z M 96,168 l 6,0 0,6 -6,0 z M 114,168 l 6,0 0,6 -6,0 z M 132,168 l 6,0 0,6 -6,0 z M 150,168 l 6,0 0,6 -6,0 z M 162,168 l 6,0 0,6 -6,0 z M 186,168 l 6,0 0,6 -6,0 z M 198,168 l 6,0 0,6 -6,0 z M 204,168 l 6,0 0,6 -6,0 z M 210,168 l 6,0 0,6 -6,0 z M 222,168 l 6,0 0,6 -6,0 z M 246,168 l 6,0 0,6 -6,0 z M 18,174 l 6,0 0,6 -6,0 z M 24,174 l 6,0 0,6 -6,0 z M 30,174 l 6,0 0,6 -6,0 z M 42,174 l 6,0 0,6 -6,0 z M 54,174 l 6,0 0,6 -6,0 z M 78,174 l 6,0 0,6 -6,0 z M 90,174 l 6,0 0,6 -6,0 z M 96,174 l 6,0 0,6 -6,0 z M 114,174 l 6,0 0,6 -6,0 z M 132,174 l 6,0 0,6 -6,0 z M 138,174 l 6,0 0,6 -6,0 z M 150,174 l 6,0 0,6 -6,0 z M 162,174 l 6,0 0,6 -6,0 z M 168,174 l 6,0 0,6 -6,0 z M 180,174 l 6,0 0,6 -6,0 z M 210,174 l 6,0 0,6 -6,0 z M 216,174 l 6,0 0,6 -6,0 z M 222,174 l 6,0 0,6 -6,0 z M 228,174 l 6,0 0,6 -6,0 z M 234,174 l 6,0 0,6 -6,0 z M 240,174 l 6,0 0,6 -6,0 z M 6,180 l 6,0 0,6 -6,0 z M 18,180 l 6,0 0,6 -6,0 z M 24,180 l 6,0 0,6 -6,0 z M 30,180 l 6,0 0,6 -6,0 z M 48,180 l 6,0 0,6 -6,0 z M 60,180 l 6,0 0,6 -6,0 z M 66,180 l 6,0 0,6 -6,0 z M 84,180 l 6,0 0,6 -6,0 z M 90,180 l 6,0 0,6 -6,0 z M 102,180 l 6,0 0,6 -6,0 z M 126,180 l 6,0 0,6 -6,0 z M 132,180 l 6,0 0,6 -6,0 z M 156,180 l 6,0 0,6 -6,0 z M 168,180 l 6,0 0,6 -6,0 z M 186,180 l 6,0 0,6 -6,0 z M 198,180 l 6,0 0,6 -6,0 z M 204,180 l 6,0 0,6 -6,0 z M 216,180 l 6,0 0,6 -6,0 z M 222,180 l 6,0 0,6 -6,0 z M 246,180 l 6,0 0,6 -6,0 z M 6,186 l 6,0 0,6 -6,0 z M 24,186 l 6,0 0,6 -6,0 z M 42,186 l 6,0 0,6 -6,0 z M 48,186 l 6,0 0,6 -6,0 z M 60,186 l 6,0 0,6 -6,0 z M 66,186 l 6,0 0,6 -6,0 z M 72,186 l 6,0 0,6 -6,0 z M 78,186 l 6,0 0,6 -6,0 z M 114,186 l 6,0 0,6 -6,0 z M 126,186 l 6,0 0,6 -6,0 z M 144,186 l 6,0 0,6 -6,0 z M 150,186 l 6,0 0,6 -6,0 z M 192,186 l 6,0 0,6 -6,0 z M 204,186 l 6,0 0,6 -6,0 z M 222,186 l 6,0 0,6 -6,0 z M 240,186 l 6,0 0,6 -6,0 z M 6,192 l 6,0 0,6 -6,0 z M 36,192 l 6,0 0,6 -6,0 z M 54,192 l 6,0 0,6 -6,0 z M 72,192 l 6,0 0,6 -6,0 z M 84,192 l 6,0 0,6 -6,0 z M 90,192 l 6,0 0,6 -6,0 z M 96,192 l 6,0 0,6 -6,0 z M 108,192 l 6,0 0,6 -6,0 z M 114,192 l 6,0 0,6 -6,0 z M 120,192 l 6,0 0,6 -6,0 z M 132,192 l 6,0 0,6 -6,0 z M 168,192 l 6,0 0,6 -6,0 z M 174,192 l 6,0 0,6 -6,0 z M 192,192 l 6,0 0,6 -6,0 z M 198,192 l 6,0 0,6 -6,0 z M 210,192 l 6,0 0,6 -6,0 z M 228,192 l 6,0 0,6 -6,0 z M 234,192 l 6,0 0,6 -6,0 z M 240,192 l 6,0 0,6 -6,0 z M 246,192 l 6,0 0,6 -6,0 z M 6,198 l 6,0 0,6 -6,0 z M 18,198 l 6,0 0,6 -6,0 z M 24,198 l 6,0 0,6 -6,0 z M 30,198 l 6,0 0,6 -6,0 z M 42,198 l 6,0 0,6 -6,0 z M 72,198 l 6,0 0,6 -6,0 z M 84,198 l 6,0 0,6 -6,0 z M 96,198 l 6,0 0,6 -6,0 z M 114,198 l 6,0 0,6 -6,0 z M 132,198 l 6,0 0,6 -6,0 z M 138,198 l 6,0 0,6 -6,0 z M 144,198 l 6,0 0,6 -6,0 z M 156,198 l 6,0 0,6 -6,0 z M 180,198 l 6,0 0,6 -6,0 z M 186,198 l 6,0 0,6 -6,0 z M 198,198 l 6,0 0,6 -6,0 z M 204,198 l 6,0 0,6 -6,0 z M 210,198 l 6,0 0,6 -6,0 z M 216,198 l 6,0 0,6 -6,0 z M 222,198 l 6,0 0,6 -6,0 z M 240,198 l 6,0 0,6 -6,0 z M 54,204 l 6,0 0,6 -6,0 z M 60,204 l 6,0 0,6 -6,0 z M 66,204 l 6,0 0,6 -6,0 z M 72,204 l 6,0 0,6 -6,0 z M 78,204 l 6,0 0,6 -6,0 z M 90,204 l 6,0 0,6 -6,0 z M 96,204 l 6,0 0,6 -6,0 z M 132,204 l 6,0 0,6 -6,0 z M 150,204 l 6,0 0,6 -6,0 z M 156,204 l 6,0 0,6 -6,0 z M 162,204 l 6,0 0,6 -6,0 z M 174,204 l 6,0 0,6 -6,0 z M 180,204 l 6,0 0,6 -6,0 z M 198,204 l 6,0 0,6 -6,0 z M 222,204 l 6,0 0,6 -6,0 z M 234,204 l 6,0 0,6 -6,0 z M 240,204 l 6,0 0,6 -6,0 z M 6,210 l 6,0 0,6 -6,0 z M 12,210 l 6,0 0,6 -6,0 z M 18,210 l 6,0 0,6 -6,0 z M 24,210 l 6,0 0,6 -6,0 z M 30,210 l 6,0 0,6 -6,0 z M 36,210 l 6,0 0,6 -6,0 z M 42,210 l 6,0 0,6 -6,0 z M 54,210 l 6,0 0,6 -6,0 z M 60,210 l 6,0 0,6 -6,0 z M 66,210 l 6,0 0,6 -6,0 z M 102,210 l 6,0 0,6 -6,0 z M 114,210 l 6,0 0,6 -6,0 z M 150,210 l 6,0 0,6 -6,0 z M 162,210 l 6,0 0,6 -6,0 z M 168,210 l 6,0 0,6 -6,0 z M 192,210 l 6,0 0,6 -6,0 z M 198,210 l 6,0 0,6 -6,0 z M 210,210 l 6,0 0,6 -6,0 z M 222,210 l 6,0 0,6 -6,0 z M 228,210 l 6,0 0,6 -6,0 z M 246,210 l 6,0 0,6 -6,0 z M 6,216 l 6,0 0,6 -6,0 z M 42,216 l 6,0 0,6 -6,0 z M 60,216 l 6,0 0,6 -6,0 z M 66,216 l 6,0 0,6 -6,0 z M 72,216 l 6,0 0,6 -6,0 z M 78,216 l 6,0 0,6 -6,0 z M 84,216 l 6,0 0,6 -6,0 z M 96,216 l 6,0 0,6 -6,0 z M 114,216 l 6,0 0,6 -6,0 z M 126,216 l 6,0 0,6 -6,0 z M 132,216 l 6,0 0,6 -6,0 z M 144,216 l 6,0 0,6 -6,0 z M 150,216 l 6,0 0,6 -6,0 z M 156,216 l 6,0 0,6 -6,0 z M 168,216 l 6,0 0,6 -6,0 z M 186,216 l 6,0 0,6 -6,0 z M 192,216 l 6,0 0,6 -6,0 z M 198,216 l 6,0 0,6 -6,0 z M 222,216 l 6,0 0,6 -6,0 z M 6,222 l 6,0 0,6 -6,0 z M 18,222 l 6,0 0,6 -6,0 z M 24,222 l 6,0 0,6 -6,0 z M 30,222 l 6,0 0,6 -6,0 z M 42,222 l 6,0 0,6 -6,0 z M 54,222 l 6,0 0,6 -6,0 z M 60,222 l 6,0 0,6 -6,0 z M 66,222 l 6,0 0,6 -6,0 z M 78,222 l 6,0 0,6 -6,0 z M 90,222 l 6,0 0,6 -6,0 z M 96,222 l 6,0 0,6 -6,0 z M 102,222 l 6,0 0,6 -6,0 z M 108,222 l 6,0 0,6 -6,0 z M 114,222 l 6,0 0,6 -6,0 z M 126,222 l 6,0 0,6 -6,0 z M 132,222 l 6,0 0,6 -6,0 z M 150,222 l 6,0 0,6 -6,0 z M 180,222 l 6,0 0,6 -6,0 z M 186,222 l 6,0 0,6 -6,0 z M 198,222 l 6,0 0,6 -6,0 z M 204,222 l 6,0 0,6 -6,0 z M 210,222 l 6,0 0,6 -6,0 z M 216,222 l 6,0 0,6 -6,0 z M 222,222 l 6,0 0,6 -6,0 z M 228,222 l 6,0 0,6 -6,0 z M 234,222 l 6,0 0,6 -6,0 z M 240,222 l 6,0 0,6 -6,0 z M 246,222 l 6,0 0,6 -6,0 z M 6,228 l 6,0 0,6 -6,0 z M 18,228 l 6,0 0,6 -6,0 z M 24,228 l 6,0 0,6 -6,0 z M 30,228 l 6,0 0,6 -6,0 z M 42,228 l 6,0 0,6 -6,0 z M 54,228 l 6,0 0,6 -6,0 z M 78,228 l 6,0 0,6 -6,0 z M 84,228 l 6,0 0,6 -6,0 z M 90,228 l 6,0 0,6 -6,0 z M 96,228 l 6,0 0,6 -6,0 z M 108,228 l 6,0 0,6 -6,0 z M 114,228 l 6,0 0,6 -6,0 z M 120,228 l 6,0 0,6 -6,0 z M 126,228 l 6,0 0,6 -6,0 z M 132,228 l 6,0 0,6 -6,0 z M 144,228 l 6,0 0,6 -6,0 z M 150,228 l 6,0 0,6 -6,0 z M 168,228 l 6,0 0,6 -6,0 z M 186,228 l 6,0 0,6 -6,0 z M 198,228 l 6,0 0,6 -6,0 z M 216,228 l 6,0 0,6 -6,0 z M 228,228 l 6,0 0,6 -6,0 z M 234,228 l 6,0 0,6 -6,0 z M 240,228 l 6,0 0,6 -6,0 z M 246,228 l 6,0 0,6 -6,0 z M 6,234 l 6,0 0,6 -6,0 z M 18,234 l 6,0 0,6 -6,0 z M 24,234 l 6,0 0,6 -6,0 z M 30,234 l 6,0 0,6 -6,0 z M 42,234 l 6,0 0,6 -6,0 z M 54,234 l 6,0 0,6 -6,0 z M 60,234 l 6,0 0,6 -6,0 z M 78,234 l 6,0 0,6 -6,0 z M 102,234 l 6,0 0,6 -6,0 z M 108,234 l 6,0 0,6 -6,0 z M 114,234 l 6,0 0,6 -6,0 z M 138,234 l 6,0 0,6 -6,0 z M 144,234 l 6,0 0,6 -6,0 z M 150,234 l 6,0 0,6 -6,0 z M 156,234 l 6,0 0,6 -6,0 z M 168,234 l 6,0 0,6 -6,0 z M 174,234 l 6,0 0,6 -6,0 z M 180,234 l 6,0 0,6 -6,0 z M 204,234 l 6,0 0,6 -6,0 z M 210,234 l 6,0 0,6 -6,0 z M 222,234 l 6,0 0,6 -6,0 z M 228,234 l 6,0 0,6 -6,0 z M 240,234 l 6,0 0,6 -6,0 z M 6,240 l 6,0 0,6 -6,0 z M 42,240 l 6,0 0,6 -6,0 z M 54,240 l 6,0 0,6 -6,0 z M 60,240 l 6,0 0,6 -6,0 z M 84,240 l 6,0 0,6 -6,0 z M 90,240 l 6,0 0,6 -6,0 z M 96,240 l 6,0 0,6 -6,0 z M 120,240 l 6,0 0,6 -6,0 z M 132,240 l 6,0 0,6 -6,0 z M 138,240 l 6,0 0,6 -6,0 z M 144,240 l 6,0 0,6 -6,0 z M 162,240 l 6,0 0,6 -6,0 z M 174,240 l 6,0 0,6 -6,0 z M 210,240 l 6,0 0,6 -6,0 z M 216,240 l 6,0 0,6 -6,0 z M 222,240 l 6,0 0,6 -6,0 z M 240,240 l 6,0 0,6 -6,0 z M 6,246 l 6,0 0,6 -6,0 z M 12,246 l 6,0 0,6 -6,0 z M 18,246 l 6,0 0,6 -6,0 z M 24,246 l 6,0 0,6 -6,0 z M 30,246 l 6,0 0,6 -6,0 z M 36,246 l 6,0 0,6 -6,0 z M 42,246 l 6,0 0,6 -6,0 z M 54,246 l 6,0 0,6 -6,0 z M 66,246 l 6,0 0,6 -6,0 z M 72,246 l 6,0 0,6 -6,0 z M 84,246 l 6,0 0,6 -6,0 z M 102,246 l 6,0 0,6 -6,0 z M 114,246 l 6,0 0,6 -6,0 z M 126,246 l 6,0 0,6 -6,0 z M 132,246 l 6,0 0,6 -6,0 z M 138,246 l 6,0 0,6 -6,0 z M 150,246 l 6,0 0,6 -6,0 z M 156,246 l 6,0 0,6 -6,0 z M 162,246 l 6,0 0,6 -6,0 z M 168,246 l 6,0 0,6 -6,0 z M 174,246 l 6,0 0,6 -6,0 z M 180,246 l 6,0 0,6 -6,0 z M 186,246 l 6,0 0,6 -6,0 z M 192,246 l 6,0 0,6 -6,0 z M 198,246 l 6,0 0,6 -6,0 z M 204,246 l 6,0 0,6 -6,0 z M 216,246 l 6,0 0,6 -6,0 z M 222,246 l 6,0 0,6 -6,0 z " />
	</g>
</svg>
